<svg id="Capa_1" data-name="Capa 1" xmlns="http://www.w3.org/2000/svg" viewBox="0 0 150 150"><defs><style>.cls-1{fill:#ffdbc5;}</style></defs><path id="path2" class="cls-1" d="M58,0,90.82,0A276.18,276.18,0,0,1,109.9,39.4c2.14,5.05,4.3,10.1,6,15.3,2.6,7.63,5.88,15,8.36,22.68,4.89,16.14,9.21,32.46,13.54,48.76,1.62,6.49,3.86,12.8,5.32,19.33-2.3.75-4.61,1.47-6.91,2.24-2.57.82-5.31.73-8,1-3.83.38-7.67.62-11.5.94l-9.22-6.36c-.42-2.93-.36-5.93-.91-8.85a215.83,215.83,0,0,0-6.82-27.65l-51.29,7.12c-.38,2.06-.78,4.13-1.17,6.19-1.71,7.32-1.28,14.91-1.74,22.36l-11.71,7.23c-.76.58-1.74.26-2.6.25-2.89-.29-5.81-.27-8.69-.62s-6.09.15-8.84-1.18c-2.3-1.07-4.67-2-6.94-3.12,2.62-12.44,6.1-24.68,9.49-36.93,4.19-15.29,9.21-30.33,14.37-45.3A398.14,398.14,0,0,1,58,0M72.19,44.13C67.92,56.51,63,68.64,58.42,80.91l27.27-15c-2.65-7.4-5.33-14.79-8.14-22.14C77,42.5,76.48,40.9,75,40.55,73.25,40.76,72.74,42.73,72.19,44.13Z"/></svg>