<svg id="Capa_1" data-name="Capa 1" xmlns="http://www.w3.org/2000/svg" viewBox="0 0 150 150"><defs><style>.cls-1{fill:#ffdbc5;}</style></defs><path id="path0_fill" data-name="path0 fill" class="cls-1" d="M50,150a25,25,0,0,0,25-25V100H50a25,25,0,0,0,0,50Z"/><path id="path1_fill" data-name="path1 fill" class="cls-1" d="M25,75A25,25,0,0,1,50,50H75v50H50A25,25,0,0,1,25,75Z"/><path id="path1_fill-2" data-name="path1 fill" class="cls-1" d="M25,25A25,25,0,0,1,50,0H75V50H50A25,25,0,0,1,25,25Z"/><path id="path2_fill" data-name="path2 fill" class="cls-1" d="M75,0h25a25,25,0,0,1,0,50H75Z"/><path id="path3_fill" data-name="path3 fill" class="cls-1" d="M125,75a25,25,0,1,1-25-25A25,25,0,0,1,125,75Z"/></svg>