<svg id="Capa_1" data-name="Capa 1" xmlns="http://www.w3.org/2000/svg" viewBox="0 0 150 150"><defs><style>.cls-1{fill:#ffdbc5;}</style></defs><path class="cls-1" d="M123.44,1.88H26.57A26.54,26.54,0,0,0,0,28.44v93.12a26.54,26.54,0,0,0,26.57,26.56h96.87A26.54,26.54,0,0,0,150,121.56V28.44A26.54,26.54,0,0,0,123.44,1.88ZM91.69,104.93H78.62a.92.92,0,0,1-1-.68L72.5,89.38H49.25L44.5,104.06a1.08,1.08,0,0,1-1.18.87H31.56c-.69,0-.88-.37-.69-1.12L51,45.87c.19-.62.38-1.31.63-2.06A21.82,21.82,0,0,0,52,39.75a.63.63,0,0,1,.5-.69H68.69c.5,0,.75.19.81.5l22.82,64.37C92.5,104.62,92.32,104.93,91.69,104.93Zm21.56-.68c0,.69-.25,1-.81,1H100.19a.88.88,0,0,1-.94-1V56.12c0-.62.25-.87.82-.87h12.37c.56,0,.81.32.81.87Zm-1.31-56.44A7.35,7.35,0,0,1,106.25,50a7.7,7.7,0,0,1-5.56-2.19,8.07,8.07,0,0,1-2.12-5.74,7.34,7.34,0,0,1,2.25-5.57,8,8,0,0,1,5.56-2.18,7.52,7.52,0,0,1,5.69,2.18,7.93,7.93,0,0,1,2.06,5.57A7.9,7.9,0,0,1,111.94,47.81Zm-46.32,19C65,64.87,64.43,63,63.81,61.07s-1.18-3.75-1.69-5.57-.93-3.38-1.37-4.88h-.13a74.43,74.43,0,0,1-2.12,8.07c-.94,3-1.87,6.13-2.88,9.25s-1.81,6.13-2.74,8.74H68.75c-.38-1.3-.87-2.87-1.44-4.49S66.18,68.69,65.62,66.82Z"/></svg>