<svg id="Capa_1" data-name="Capa 1" xmlns="http://www.w3.org/2000/svg" viewBox="0 0 150 150"><defs><style>.cls-1{fill:#ffdbc5;}</style></defs><path class="cls-1" d="M150,28.12a24.44,24.44,0,0,0-.44-4.76A26.42,26.42,0,0,0,123.15,1.83H74.9q-24.33,0-48.66,0A26.32,26.32,0,0,0,0,28.07Q0,75,0,122a26.29,26.29,0,0,0,26.08,26.19q48.85,0,97.71,0A26.42,26.42,0,0,0,150,121.83Q150,75,150,28.12ZM52,105.58c-3.13-.16-6.28-.12-9.41,0-1.67.06-2.2-.52-2.19-2.17.06-9.07,0-18.15,0-27.23,0-11.47,0-23,0-34.43,0-1.88.46-2.62,2.44-2.53,3.13.14,6.27.12,9.41,0,1.73-.07,2.32.51,2.31,2.27-.06,10.35,0,20.7,0,31,0,10.13,0,20.28,0,30.43C54.57,104.93,54.06,105.7,52,105.58Zm58-3c-10.48,3.92-21.18,5.77-31.9,1.26-9.4-3.95-13.22-11.7-13.78-21.58C63.44,67.73,74,55,90.77,54.21c1.91-.09,3.83,0,6,0V44.82c0-3.14.05-6.27,0-9.4,0-1.39.63-1.68,1.84-1.66,3.39,0,6.8.08,10.2,0,1.52,0,1.93.53,1.92,2-.06,7.14,0,14.27,0,21.41,0,10.13,0,20.27,0,30.41,0,4.26.27,8.52.28,12.79C111,101.1,110.5,102.35,109.94,102.56Z"/><path class="cls-1" d="M96.74,80.17c0,4,0,8,0,12,0,.61-.57,1.68-1,1.73-5,.61-9.91.5-13.73-3.53S77.38,78,80,73.05s9.31-8.13,15.18-7.11c1.08.19,1.57.62,1.55,1.83C96.7,71.9,96.74,76,96.74,80.17Z"/></svg>