<svg id="Capa_1" data-name="Capa 1" xmlns="http://www.w3.org/2000/svg" viewBox="0 0 150 150"><defs><style>.cls-1{fill:#ffdbc5;}</style></defs><g id="Layer_2" data-name="Layer 2"><g id="Surfaces"><g id="Photo_Surface" data-name="Photo Surface"><g id="Outline_no_shadow" data-name="Outline no shadow"><path class="cls-1" d="M65.93,56.18a9.09,9.09,0,0,0-4.37-3.56,18.33,18.33,0,0,0-7.38-1.25c-1.62,0-3.06,0-4.25.06a14.61,14.61,0,0,0-2.56.07v21c.88.06,1.7.12,2.45.12h3.3a23.29,23.29,0,0,0,7.19-1.12,10.72,10.72,0,0,0,5.12-3.32,9.57,9.57,0,0,0,1.94-6.43A10.36,10.36,0,0,0,65.93,56.18Zm0,0a9.09,9.09,0,0,0-4.37-3.56,18.33,18.33,0,0,0-7.38-1.25c-1.62,0-3.06,0-4.25.06a14.61,14.61,0,0,0-2.56.07v21c.88.06,1.7.12,2.45.12h3.3a23.29,23.29,0,0,0,7.19-1.12,10.72,10.72,0,0,0,5.12-3.32,9.57,9.57,0,0,0,1.94-6.43A10.36,10.36,0,0,0,65.93,56.18Zm0,0a9.09,9.09,0,0,0-4.37-3.56,18.33,18.33,0,0,0-7.38-1.25c-1.62,0-3.06,0-4.25.06a14.61,14.61,0,0,0-2.56.07v21c.88.06,1.7.12,2.45.12h3.3a23.29,23.29,0,0,0,7.19-1.12,10.72,10.72,0,0,0,5.12-3.32,9.57,9.57,0,0,0,1.94-6.43A10.36,10.36,0,0,0,65.93,56.18Zm0,0a9.09,9.09,0,0,0-4.37-3.56,18.33,18.33,0,0,0-7.38-1.25c-1.62,0-3.06,0-4.25.06a14.61,14.61,0,0,0-2.56.07v21c.88.06,1.7.12,2.45.12h3.3a23.29,23.29,0,0,0,7.19-1.12,10.72,10.72,0,0,0,5.12-3.32,9.57,9.57,0,0,0,1.94-6.43A10.36,10.36,0,0,0,65.93,56.18Zm0,0a9.09,9.09,0,0,0-4.37-3.56,18.33,18.33,0,0,0-7.38-1.25c-1.62,0-3.06,0-4.25.06a14.61,14.61,0,0,0-2.56.07v21c.88.06,1.7.12,2.45.12h3.3a23.29,23.29,0,0,0,7.19-1.12,10.72,10.72,0,0,0,5.12-3.32,9.57,9.57,0,0,0,1.94-6.43A10.36,10.36,0,0,0,65.93,56.18Zm0,0a9.09,9.09,0,0,0-4.37-3.56,18.33,18.33,0,0,0-7.38-1.25c-1.62,0-3.06,0-4.25.06a14.61,14.61,0,0,0-2.56.07v21c.88.06,1.7.12,2.45.12h3.3a23.29,23.29,0,0,0,7.19-1.12,10.72,10.72,0,0,0,5.12-3.32,9.57,9.57,0,0,0,1.94-6.43A10.36,10.36,0,0,0,65.93,56.18ZM123.44,1.87H26.56A26.55,26.55,0,0,0,0,28.43v93.14a26.54,26.54,0,0,0,26.56,26.55h96.88A26.54,26.54,0,0,0,150,121.57V28.43A26.55,26.55,0,0,0,123.44,1.87ZM77.25,74.68a21.34,21.34,0,0,1-10.07,7.63,40.53,40.53,0,0,1-14.06,2.12c-1.49,0-2.5,0-3.12-.06s-1.5-.06-2.69-.06v20.06a.79.79,0,0,1-.68.88H34.5c-.5,0-.75-.25-.75-.81V40.12c0-.44.18-.68.63-.68,1.06,0,2,0,3.5-.07s3,0,4.75-.12,3.49-.06,5.43-.12,3.82-.06,5.69-.06A36.87,36.87,0,0,1,66.63,41,22.55,22.55,0,0,1,75,46.12a20,20,0,0,1,4.56,7.13A23.87,23.87,0,0,1,81,61.37Q81,69.44,77.25,74.68ZM121.56,99a15.7,15.7,0,0,1-7,5.56,28.66,28.66,0,0,1-11.31,2,43.26,43.26,0,0,1-8.5-.81,25.44,25.44,0,0,1-6.38-2,1.25,1.25,0,0,1-.69-1.19V91.68a.71.71,0,0,1,.25-.56.49.49,0,0,1,.57.07,27,27,0,0,0,7.75,3.06,29.26,29.26,0,0,0,7.37.94,12.14,12.14,0,0,0,5.19-.87,2.92,2.92,0,0,0,1.69-2.63,3.32,3.32,0,0,0-1.5-2.5,26.48,26.48,0,0,0-6.12-2.94A38.42,38.42,0,0,1,94,81.75a16,16,0,0,1-4.75-5.31,13.44,13.44,0,0,1-1.44-6.37,14.76,14.76,0,0,1,2.12-7.57,15.45,15.45,0,0,1,6.57-5.75,24.2,24.2,0,0,1,11.06-2.18,54.48,54.48,0,0,1,7.75.55,21.83,21.83,0,0,1,5.37,1.45,1.09,1.09,0,0,1,.63.55,2.8,2.8,0,0,1,.12.76V68.07a.74.74,0,0,1-.31.62,1.72,1.72,0,0,1-1.12,0,22.34,22.34,0,0,0-6-2.13,33,33,0,0,0-7-.81,12.39,12.39,0,0,0-3.75.43,3.23,3.23,0,0,0-1.94,1.25,3.36,3.36,0,0,0-.5,1.7,2.82,2.82,0,0,0,.62,1.62,7.18,7.18,0,0,0,2.13,1.68c1.44.75,2.94,1.44,4.44,2.07a44.93,44.93,0,0,1,9.63,4.56,14.59,14.59,0,0,1,4.93,5.19A13.49,13.49,0,0,1,124,90.68,14.62,14.62,0,0,1,121.56,99Zm-60-46.38a18.33,18.33,0,0,0-7.38-1.25c-1.62,0-3.06,0-4.25.06a14.61,14.61,0,0,0-2.56.07v21c.88.06,1.7.12,2.45.12h3.3a23.29,23.29,0,0,0,7.19-1.12,10.72,10.72,0,0,0,5.12-3.32,9.57,9.57,0,0,0,1.94-6.43,10.36,10.36,0,0,0-1.44-5.57A9.09,9.09,0,0,0,61.56,52.62Zm4.37,3.56a9.09,9.09,0,0,0-4.37-3.56,18.33,18.33,0,0,0-7.38-1.25c-1.62,0-3.06,0-4.25.06a14.61,14.61,0,0,0-2.56.07v21c.88.06,1.7.12,2.45.12h3.3a23.29,23.29,0,0,0,7.19-1.12,10.72,10.72,0,0,0,5.12-3.32,9.57,9.57,0,0,0,1.94-6.43A10.36,10.36,0,0,0,65.93,56.18Zm0,0a9.09,9.09,0,0,0-4.37-3.56,18.33,18.33,0,0,0-7.38-1.25c-1.62,0-3.06,0-4.25.06a14.61,14.61,0,0,0-2.56.07v21c.88.06,1.7.12,2.45.12h3.3a23.29,23.29,0,0,0,7.19-1.12,10.72,10.72,0,0,0,5.12-3.32,9.57,9.57,0,0,0,1.94-6.43A10.36,10.36,0,0,0,65.93,56.18Zm0,0a9.09,9.09,0,0,0-4.37-3.56,18.33,18.33,0,0,0-7.38-1.25c-1.62,0-3.06,0-4.25.06a14.61,14.61,0,0,0-2.56.07v21c.88.06,1.7.12,2.45.12h3.3a23.29,23.29,0,0,0,7.19-1.12,10.72,10.72,0,0,0,5.12-3.32,9.57,9.57,0,0,0,1.94-6.43A10.36,10.36,0,0,0,65.93,56.18Zm0,0a9.09,9.09,0,0,0-4.37-3.56,18.33,18.33,0,0,0-7.38-1.25c-1.62,0-3.06,0-4.25.06a14.61,14.61,0,0,0-2.56.07v21c.88.06,1.7.12,2.45.12h3.3a23.29,23.29,0,0,0,7.19-1.12,10.72,10.72,0,0,0,5.12-3.32,9.57,9.57,0,0,0,1.94-6.43A10.36,10.36,0,0,0,65.93,56.18Z"/></g></g></g></g></svg>