<svg id="Capa_1" data-name="Capa 1" xmlns="http://www.w3.org/2000/svg" viewBox="0 0 150 150"><defs><style>.cls-1{fill:#ffdbc5;}</style></defs><path class="cls-1" d="M41.79,150l-27-5.7c.41-2.83.8-5.6,1.21-8.36l3.48-23.61q1.31-8.81,2.6-17.6,1.74-11.82,3.47-23.62l3.18-21.57q1.74-11.8,3.47-23.61c.22-1.5.38-3,.71-4.5A2.35,2.35,0,0,1,34,20Q52.74,10.09,71.58.28c.16-.09.34-.15.64-.28,2.17,2.7,4.36,5.41,6.53,8.14q14.58,18.25,29.16,36.51a3.56,3.56,0,0,1,.83,3.34c-1.62,7.4-3.16,14.82-4.68,22.24a1.76,1.76,0,0,1-1.47,1.53c-5.5,1.48-11,3-16.46,4.54-.26.08-.5.19-.94.36.87,1,1.64,1.83,2.43,2.69l30.46,32.84q8.4,9.07,16.79,18.17a1.55,1.55,0,0,1,.27,1.36c-3,5.25-6,10.46-9.08,15.83L50.24,108.36Z"/></svg>