<svg id="Capa_1" data-name="Capa 1" xmlns="http://www.w3.org/2000/svg" viewBox="0 0 506.35 547.94"><defs><style>.cls-1{fill:#f7931e;}</style></defs><path class="cls-1" d="M274.77,24.12c52.82,0,105.64,81.61,8.45,244.78,63-105.74,126.84-141.47,171.2-141.47,92.55,0,100.11,155.66-162.75,155.66h0c262.81,0,255.31,155.65,162.75,155.65-44.35,0-108.23-35.74-171.2-141.46,97.22,163.2,44.38,244.78-8.45,244.78s-105.65-81.62-8.46-244.78C203.33,403,139.47,438.74,95.11,438.74,2.57,438.74-5,283.09,257.86,283.09h0C-4.95,283.09,2.55,127.42,95.11,127.43c44.36,0,108.23,35.75,171.2,141.47-97.22-163.21-44.38-244.8,8.46-244.78m0-15h0c-25.52,0-49.11,14.69-63.1,39.3-13.43,23.64-17.69,55.13-12.33,91.09a257.71,257.71,0,0,0,5.17,25.39,265.81,265.81,0,0,0-21.73-18.35c-29.6-22.32-59.91-34.11-87.64-34.12h0c-14.31,0-27.35,3.08-38.76,9.15a65.81,65.81,0,0,0-26.28,25.07,64.11,64.11,0,0,0-8.44,33.79C22,192.75,25.57,205,32.35,216.71c13.68,23.68,39.34,43.55,74.22,57.45a270.34,270.34,0,0,0,26.4,8.93c-20.49,5.81-38.61,13.27-54,22.26-36.44,21.25-57.34,51.21-57.34,82.21a63.19,63.19,0,0,0,20.85,47.29C55.85,447,74.55,453.74,95.11,453.74c27.74,0,58.05-11.79,87.65-34.1a266.25,266.25,0,0,0,21.74-18.37,254.73,254.73,0,0,0-5.16,25.39c-5.36,35.95-1.09,67.45,12.34,91.09,14,24.61,37.57,39.31,63.09,39.31s49.11-14.7,63.1-39.32c13.43-23.63,17.7-55.12,12.33-91.08A254.55,254.55,0,0,0,345,401.28a265.81,265.81,0,0,0,21.73,18.35c29.6,22.32,59.91,34.11,87.65,34.11,20.56,0,39.26-6.71,52.67-18.89a63.14,63.14,0,0,0,20.84-47.28c0-31-20.9-61-57.34-82.21-15.43-9-33.55-16.46-54-22.27,20.51-5.81,38.63-13.27,54.06-22.27,36.44-21.24,57.34-51.2,57.34-82.2a63.17,63.17,0,0,0-20.85-47.29c-13.41-12.18-32.11-18.9-52.67-18.9-27.74,0-58.05,11.8-87.64,34.11A266.19,266.19,0,0,0,345,164.9a254.2,254.2,0,0,0,5.16-25.36c5.36-35.95,1.1-67.45-12.33-91.09-14-24.62-37.57-39.32-63.09-39.33Z" transform="translate(-21.59 -9.12)"/></svg>