<svg id="Capa_1" data-name="Capa 1" xmlns="http://www.w3.org/2000/svg" viewBox="0 0 25 25"><defs><style>.cls-1{fill:#ffdbc5;}</style></defs><path class="cls-1" d="M12.5,0A12.5,12.5,0,1,0,25,12.5,12.47,12.47,0,0,0,12.5,0Zm5.07,18.43a.91.91,0,0,1-.57-.22c-3.14-1.92-6.79-2-10.43-1.21-.14.07-.36.07-.57.14a.79.79,0,0,1-.79-.78h0a.85.85,0,0,1,.72-.86c4.14-.93,8.36-.86,11.93,1.29a1,1,0,0,1,.5.85A.85.85,0,0,1,17.57,18.43Zm1.36-3.36a1.13,1.13,0,0,1-.64-.21,16.39,16.39,0,0,0-12.08-1.5,2.13,2.13,0,0,1-.57.14,1,1,0,0,1-1-1,1,1,0,0,1,.79-1.07,16.44,16.44,0,0,1,4.93-.72A18.48,18.48,0,0,1,19.29,13a1.15,1.15,0,0,1,.57,1,.91.91,0,0,1-.93,1.07Zm1.57-3.86a1.16,1.16,0,0,1-.64-.21c-3.57-2.14-10-2.64-14.15-1.5a2,2,0,0,1-.64.14A1.13,1.13,0,0,1,3.93,8.5V8.43a1.26,1.26,0,0,1,.86-1.22,23.58,23.58,0,0,1,5.92-.78A21.25,21.25,0,0,1,21.07,8.86,1.08,1.08,0,0,1,21.71,10a1.25,1.25,0,0,1-1.21,1.21Z" transform="translate(0 0)"/></svg>