<?xml version="1.0" encoding="utf-8"?>
<!-- Generator: Adobe Illustrator 26.0.0, SVG Export Plug-In . SVG Version: 6.00 Build 0)  -->
<svg version="1.1" id="Capa_1" xmlns="http://www.w3.org/2000/svg" xmlns:xlink="http://www.w3.org/1999/xlink" x="0px" y="0px"
	 viewBox="0 0 35 35" style="enable-background:new 0 0 35 35;" xml:space="preserve">
<style type="text/css">
	.st0{fill:#FFDBC5;}
</style>
<path class="st0" d="M17.5,0C7.8,0,0,7.8,0,17.5S7.8,35,17.5,35S35,27.2,35,17.5S27.2,0,17.5,0z M24.6,25.8c-0.3,0-0.5-0.1-0.8-0.3
	c-4.4-2.7-9.5-2.8-14.6-1.7C9,23.9,8.7,23.9,8.4,24c-0.6,0-1.1-0.5-1.1-1.1c0,0,0,0,0,0c0-0.6,0.4-1.1,1-1.2
	c5.8-1.3,11.7-1.2,16.7,1.8c0.4,0.2,0.7,0.7,0.7,1.2C25.7,25.3,25.2,25.7,24.6,25.8z M26.5,21.1c-0.3,0-0.6-0.1-0.9-0.3
	c-4.4-2.6-11-3.7-16.9-2.1c-0.3,0.1-0.6,0.2-0.8,0.2c-0.8,0-1.4-0.6-1.4-1.4c-0.1-0.7,0.4-1.3,1.1-1.5c2.2-0.7,4.6-1,6.9-1
	c4.4,0,8.7,1.1,12.5,3.2c0.5,0.3,0.8,0.8,0.8,1.4C27.9,20.5,27.3,21.1,26.5,21.1C26.5,21.1,26.5,21.1,26.5,21.1L26.5,21.1z
	 M28.7,15.7c-0.3,0-0.6-0.1-0.9-0.3c-5-3-14-3.7-19.8-2.1c-0.3,0.1-0.6,0.2-0.9,0.2c-0.9,0-1.6-0.7-1.6-1.6c0,0,0,0,0-0.1
	c0-0.8,0.5-1.5,1.2-1.7c2.7-0.7,5.5-1.1,8.3-1.1c5.2,0,10.5,1.1,14.5,3.4c0.6,0.3,1,0.9,0.9,1.6C30.3,15,29.6,15.7,28.7,15.7
	L28.7,15.7z"/>
</svg>
